<svg width="400" height="120" viewBox="0 0 400 120" xmlns="http://www.w3.org/2000/svg">
  <defs>
    <linearGradient id="chartGradient" x1="0%" y1="0%" x2="100%" y2="0%">
      <stop offset="0%" style="stop-color:#3B82F6;stop-opacity:1" />
      <stop offset="100%" style="stop-color:#1E40AF;stop-opacity:1" />
    </linearGradient>
    <linearGradient id="accentGradient" x1="0%" y1="0%" x2="100%" y2="0%">
      <stop offset="0%" style="stop-color:#06B6D4;stop-opacity:1" />
      <stop offset="100%" style="stop-color:#0891B2;stop-opacity:1" />
    </linearGradient>
  </defs>
  
  <!-- Background circle -->
  <circle cx="60" cy="60" r="45" fill="#F8FAFC" stroke="url(#chartGradient)" stroke-width="2" opacity="0.1"/>
  
  <!-- Data visualization icon -->
  <g transform="translate(30, 30)">
    <!-- Bar chart elements -->
    <rect x="10" y="35" width="8" height="25" fill="url(#chartGradient)" rx="1"/>
    <rect x="22" y="25" width="8" height="35" fill="url(#chartGradient)" rx="1"/>
    <rect x="34" y="15" width="8" height="45" fill="url(#chartGradient)" rx="1"/>
    <rect x="46" y="30" width="8" height="30" fill="url(#chartGradient)" rx="1"/>
    
    <!-- Trend line -->
    <path d="M 12 45 Q 25 35 38 25 Q 45 20 52 35" stroke="url(#accentGradient)" stroke-width="2.5" fill="none" stroke-linecap="round"/>
    
    <!-- Data points -->
    <circle cx="14" cy="45" r="3" fill="url(#accentGradient)"/>
    <circle cx="26" cy="35" r="3" fill="url(#accentGradient)"/>
    <circle cx="38" cy="25" r="3" fill="url(#accentGradient)"/>
    <circle cx="50" cy="35" r="3" fill="url(#accentGradient)"/>
  </g>
  
  <!-- Main text: Analytics -->
  <text x="130" y="45" font-family="'Segoe UI', -apple-system, BlinkMacSystemFont, system-ui, sans-serif" 
        font-size="28" font-weight="700" fill="#1E293B">Analytics</text>
  
  <!-- Subtitle: by Shanikwa -->
  <text x="130" y="75" font-family="'Segoe UI', -apple-system, BlinkMacSystemFont, system-ui, sans-serif" 
        font-size="16" font-weight="400" fill="url(#accentGradient)">by Shanikwa</text>
  
  <!-- Decorative accent line -->
  <line x1="130" y1="85" x2="200" y2="85" stroke="url(#accentGradient)" stroke-width="2" stroke-linecap="round" opacity="0.6"/>
  
  <!-- Small data dots for decoration -->
  <circle cx="320" cy="30" r="2" fill="url(#chartGradient)" opacity="0.4"/>
  <circle cx="335" cy="25" r="2" fill="url(#accentGradient)" opacity="0.6"/>
  <circle cx="350" cy="35" r="2" fill="url(#chartGradient)" opacity="0.4"/>
  
  <circle cx="325" cy="85" r="1.5" fill="url(#accentGradient)" opacity="0.3"/>
  <circle cx="340" cy="90" r="1.5" fill="url(#chartGradient)" opacity="0.3"/>
</svg>